solid bambuddy_pa_line
  facet normal 0.000000e+00 0.000000e+00 -1.000000e+00
    outer loop
      vertex -1.500000e+01 -2.100000e-01 0.000000e+00
      vertex 1.500000e+01 2.100000e-01 0.000000e+00
      vertex 1.500000e+01 -2.100000e-01 0.000000e+00
    endloop
  endfacet
  facet normal 0.000000e+00 0.000000e+00 -1.000000e+00
    outer loop
      vertex -1.500000e+01 -2.100000e-01 0.000000e+00
      vertex -1.500000e+01 2.100000e-01 0.000000e+00
      vertex 1.500000e+01 2.100000e-01 0.000000e+00
    endloop
  endfacet
  facet normal 0.000000e+00 0.000000e+00 1.000000e+00
    outer loop
      vertex -1.500000e+01 -2.100000e-01 2.500000e-01
      vertex 1.500000e+01 -2.100000e-01 2.500000e-01
      vertex 1.500000e+01 2.100000e-01 2.500000e-01
    endloop
  endfacet
  facet normal 0.000000e+00 0.000000e+00 1.000000e+00
    outer loop
      vertex -1.500000e+01 -2.100000e-01 2.500000e-01
      vertex 1.500000e+01 2.100000e-01 2.500000e-01
      vertex -1.500000e+01 2.100000e-01 2.500000e-01
    endloop
  endfacet
  facet normal 0.000000e+00 -1.000000e+00 0.000000e+00
    outer loop
      vertex -1.500000e+01 -2.100000e-01 0.000000e+00
      vertex 1.500000e+01 -2.100000e-01 0.000000e+00
      vertex 1.500000e+01 -2.100000e-01 2.500000e-01
    endloop
  endfacet
  facet normal 0.000000e+00 -1.000000e+00 0.000000e+00
    outer loop
      vertex -1.500000e+01 -2.100000e-01 0.000000e+00
      vertex 1.500000e+01 -2.100000e-01 2.500000e-01
      vertex -1.500000e+01 -2.100000e-01 2.500000e-01
    endloop
  endfacet
  facet normal 0.000000e+00 1.000000e+00 0.000000e+00
    outer loop
      vertex 1.500000e+01 2.100000e-01 0.000000e+00
      vertex -1.500000e+01 2.100000e-01 0.000000e+00
      vertex -1.500000e+01 2.100000e-01 2.500000e-01
    endloop
  endfacet
  facet normal 0.000000e+00 1.000000e+00 0.000000e+00
    outer loop
      vertex 1.500000e+01 2.100000e-01 0.000000e+00
      vertex -1.500000e+01 2.100000e-01 2.500000e-01
      vertex 1.500000e+01 2.100000e-01 2.500000e-01
    endloop
  endfacet
  facet normal 1.000000e+00 0.000000e+00 0.000000e+00
    outer loop
      vertex 1.500000e+01 -2.100000e-01 0.000000e+00
      vertex 1.500000e+01 2.100000e-01 0.000000e+00
      vertex 1.500000e+01 2.100000e-01 2.500000e-01
    endloop
  endfacet
  facet normal 1.000000e+00 0.000000e+00 0.000000e+00
    outer loop
      vertex 1.500000e+01 -2.100000e-01 0.000000e+00
      vertex 1.500000e+01 2.100000e-01 2.500000e-01
      vertex 1.500000e+01 -2.100000e-01 2.500000e-01
    endloop
  endfacet
  facet normal -1.000000e+00 0.000000e+00 0.000000e+00
    outer loop
      vertex -1.500000e+01 2.100000e-01 0.000000e+00
      vertex -1.500000e+01 -2.100000e-01 0.000000e+00
      vertex -1.500000e+01 -2.100000e-01 2.500000e-01
    endloop
  endfacet
  facet normal -1.000000e+00 0.000000e+00 0.000000e+00
    outer loop
      vertex -1.500000e+01 2.100000e-01 0.000000e+00
      vertex -1.500000e+01 -2.100000e-01 2.500000e-01
      vertex -1.500000e+01 2.100000e-01 2.500000e-01
    endloop
  endfacet
endsolid bambuddy_pa_line
